<?xml version="1.0" encoding="UTF-8"?>
<svg width="58px" height="58px" viewBox="0 0 58 58" version="1.1" xmlns="http://www.w3.org/2000/svg" xmlns:xlink="http://www.w3.org/1999/xlink">
    <!-- Generator: Sketch 51.3 (57544) - http://www.bohemiancoding.com/sketch -->
    <title>047 - Programmer</title>
    <desc>Created with Sketch.</desc>
    <defs></defs>
    <g id="Page-1" stroke="none" stroke-width="1" fill="none" fill-rule="evenodd">
        <g id="047---Programmer" fill-rule="nonzero">
            <path d="M24.45,8.39 C21.35,7.961 18.277,8.537 16.5,12 C15.395,14.153 16.956,16.645 16.062,18.938 C15.383,20.68 11.292,20.753 9.527,21.354 C8.68151859,21.6705819 7.79027202,21.8478856 6.888,21.879 C5.617,21.857 4.601,20.663 3.788,19.691 C1.34572832,16.757479 0.44281012,12.8379382 1.35549269,9.131559 C2.26817526,5.42517976 4.88783924,2.37306224 8.413,0.909 C11.5250904,-0.333561388 15.0123211,-0.234844916 18.0491353,1.18177956 C21.0859494,2.59840405 23.4023648,5.20699422 24.45,8.39 Z" id="Shape" fill="#CB8252"></path>
            <path d="M31.5,37.375 L34.125,47.875 C34.78,49.028 38.69,46.868 40,46.975 L40,40 L31.5,37.375 Z" id="Shape" fill="#3F5860"></path>
            <path d="M58,14 L58,14.23 C54.2,14.706 52.552,24.989 44,28 C38.907,29.793 26.849,23.232 22.87,26.39 C21.6622682,26.0803532 20.4157498,25.9489634 19.17,26 L13,24 C18.95,24 21.38,17.18 22.33,11.5 L58,14 Z" id="Shape" fill="#B0D3F0"></path>
            <path d="M58,14.23 L58,38 C57.9967052,39.1032019 57.1032019,39.9967052 56,40 L34.04,40 L28.72,32.77 L26.37,29.58 C25.6892816,28.0823265 24.4242066,26.9293009 22.87,26.39 C33.53,17.93 51.94,14.99 58,14.23 Z" id="Shape" fill="#90BAE1"></path>
            <path d="M58,12 L58,14.5 L23.33,14.5 C23.4423673,13.6713915 23.4991608,12.8361924 23.5,12 C23.4959834,11.3294752 23.4357727,10.6604668 23.32,10 L56,10 C57.1032019,10.0032948 57.9967052,10.8967981 58,12 Z" id="Shape" fill="#547580"></path>
            <path d="M58,52.5 C58,55.5375661 55.5375661,58 52.5,58 L47.5,58 L47.5,47 L52.5,47 C53.9586907,47 55.3576372,47.5794626 56.3890873,48.6109127 C57.4205374,49.6423628 58,51.0413093 58,52.5 Z" id="Shape" fill="#FDD7AD"></path>
            <path d="M25,12 C25,18.627417 19.627417,24 13,24 C10.5988079,24.0074361 8.25195365,23.2855953 6.27,21.93 C10.98,21.61 14,19.94 14,13 C14,7.27 20.66,7.7 24.45,8.4 C24.8178742,9.56445924 25.0034012,10.7788181 25,12 Z" id="Shape" fill="#FDD7AD"></path>
            <path d="M24.45,8.39 C21.35,7.961 16.288,7.158 14.511,10.621 C13.411,12.774 14.17,15.497 13.276,17.79 C12.6342375,19.486897 11.2541756,20.7988577 9.527,21.354 C8.68125848,21.6696672 7.79016225,21.846941 6.888,21.879 C5.602,21.861 4.606,20.669 3.788,19.691 C1.34572832,16.757479 0.44281012,12.8379382 1.35549269,9.131559 C2.26817526,5.42517976 4.88783924,2.37306224 8.413,0.909 C11.5250904,-0.333561388 15.0123211,-0.234844916 18.0491353,1.18177956 C21.0859494,2.59840405 23.4023648,5.20699422 24.45,8.39 Z" id="Shape" fill="#CB8252"></path>
            <path d="M48,47 L48,58 L37.49,58 C34.0709971,57.9976818 30.8891639,56.2521975 29.05,53.37 L25.74,48.16 C25.6459208,48.0081957 25.4626066,47.9371503 25.2907979,47.9859069 C25.1189891,48.0346634 25.0003179,48.1914073 25,48.37 L25,57 C25,57.5522847 24.5522847,58 24,58 L1,58 C0.44771525,58 0,57.5522847 0,57 L0,34 C2.22044605e-16,28.4771525 4.4771525,24 10,24 L19.17,24 C22.7740323,24.0000415 26.0986488,25.9413118 27.87,29.08 L36.85,44.97 C37.5610655,46.2227207 38.8895425,46.9976656 40.33,47 L48,47 Z" id="Shape" fill="#955BA5"></path>
            <path d="M32,25 C31.8028084,24.999847 31.6100634,24.9413972 31.446,24.832 L28.446,22.832 C28.1678449,22.6465268 28.0007756,22.3343211 28.0007756,22 C28.0007756,21.6656789 28.1678449,21.3534732 28.446,21.168 L31.446,19.168 C31.743245,18.9697176 32.1236931,18.9450754 32.4440332,19.1033559 C32.7643733,19.2616364 32.9759381,19.578793 32.9990332,19.9353559 C33.0221283,20.2919188 32.853245,20.6337176 32.556,20.832 L30.8,22 L32.552,23.168 C32.9181979,23.4121763 33.0816901,23.8670772 32.9547105,24.2885023 C32.8277309,24.7099274 32.440138,24.9987809 32,25 Z" id="Shape" fill="#2C3E50"></path>
            <path d="M40,25 C39.5591231,25.0005403 39.1699098,24.7122901 39.0418732,24.290414 C38.9138366,23.868538 39.0771898,23.4125875 39.444,23.168 L41.2,22 L39.448,20.832 C39.150755,20.6337176 38.9818718,20.2919188 39.0049669,19.9353559 C39.028062,19.578793 39.2396268,19.2616364 39.5599669,19.1033559 C39.8803069,18.9450754 40.260755,18.9697176 40.558,19.168 L43.558,21.168 C43.8361551,21.3534732 44.0032244,21.6656789 44.0032244,22 C44.0032244,22.3343211 43.8361551,22.6465268 43.558,22.832 L40.558,24.832 C40.3928034,24.942155 40.1985539,25.0006387 40,25 Z" id="Shape" fill="#2C3E50"></path>
            <path d="M35,27 C34.9180874,26.9998225 34.8364963,26.9897495 34.757,26.97 C34.2213791,26.8362184 33.8955055,26.2936925 34.029,25.758 L36.029,17.758 C36.1726734,17.2340783 36.7083531,16.9206979 37.2354607,17.0522031 C37.7625682,17.1837083 38.0882665,17.7119892 37.969,18.242 L35.969,26.242 C35.8580197,26.6869668 35.4585975,26.9994146 35,27 Z" id="Shape" fill="#2C3E50"></path>
            <path d="M42,31 L33,31 C32.4477153,31 32,30.5522847 32,30 C32,29.4477153 32.4477153,29 33,29 L42,29 C42.5522847,29 43,29.4477153 43,30 C43,30.5522847 42.5522847,31 42,31 Z" id="Shape" fill="#FF5364"></path>
            <path d="M54,31 L46,31 C45.4477153,31 45,30.5522847 45,30 C45,29.4477153 45.4477153,29 46,29 L54,29 C54.5522847,29 55,29.4477153 55,30 C55,30.5522847 54.5522847,31 54,31 Z" id="Shape" fill="#FF5364"></path>
            <path d="M47,35 L36,35 C35.4477153,35 35,34.5522847 35,34 C35,33.4477153 35.4477153,33 36,33 L47,33 C47.5522847,33 48,33.4477153 48,34 C48,34.5522847 47.5522847,35 47,35 Z" id="Shape" fill="#2C3E50"></path>
        </g>
    </g>
</svg>