<?xml version="1.0" encoding="UTF-8"?>
<svg width="50px" height="58px" viewBox="0 0 50 58" version="1.1" xmlns="http://www.w3.org/2000/svg" xmlns:xlink="http://www.w3.org/1999/xlink">
    <!-- Generator: Sketch 51.3 (57544) - http://www.bohemiancoding.com/sketch -->
    <title>028 - Programming Reward</title>
    <desc>Created with Sketch.</desc>
    <defs></defs>
    <g id="Page-1" stroke="none" stroke-width="1" fill="none" fill-rule="evenodd">
        <g id="028---Programming-Reward" fill-rule="nonzero">
            <path d="M49.105,49.557 L36.64,25.6 C36.184,25.838 32.763,22.907 32.434,23.236 C31.488,24.183 31.183,26.001 30.017,26.676 C29.0507191,27.0212052 28.0125516,27.1151461 27,26.949 L25,39.22 L35.021,57.5 C35.2076836,57.8278956 35.5630328,58.0227979 35.9398782,58.0039873 C36.3167236,57.9851768 36.6508974,57.7558563 36.804,57.411 L39.704,50.881 C39.8793405,50.4862946 40.2882711,50.2487599 40.718,50.292 L48.124,51.032 C48.4938821,51.0706627 48.8546662,50.9008696 49.0606184,50.5912065 C49.2665706,50.2815435 49.2836663,49.8831685 49.105,49.557 Z" id="Shape" fill="#C03A2B"></path>
            <path d="M29.99,30.13 L14.98,57.49 C14.7943751,57.8169316 14.4410686,58.0121267 14.0654945,57.995247 C13.6899204,57.9783673 13.3555486,57.7522652 13.2,57.41 L10.29,50.88 C10.121786,50.4807985 9.71035237,50.2404561 9.28,50.29 L4.69,50.75 L14.12,26 C14.3385709,26.3649554 14.6400478,26.6732841 15,26.9 C16.15,27.56 17.87,26.92 19.18,27.28 C20.45,27.62 21.62,29.04 23,29.04 C24.38,29.04 27.55,30.58 28.82,30.24 C29.000011,30.1904481 29.1840675,30.1569833 29.37,30.14 L29.48,30.14 C29.6496469,30.1264681 29.819953,30.1231288 29.99,30.13 Z" id="Shape" fill="#E64C3C"></path>
            <path d="M18.54,24.99 L18.54,25 L4.69,50.75 L1.87,51.03 C1.50177416,51.0670164 1.14321192,50.8976416 0.937927516,50.589715 C0.732643111,50.2817884 0.714205707,49.8856637 0.89,49.56 L13.36,25.6 C13.55,25.7 13.74,25.81 13.92,25.92 C13.9792123,25.9472806 14.0333251,25.9844831 14.08,26.03 C14.26,26.14 16.85,22.31 17,22.46 C17.4776763,23.0349697 17.8715817,23.6746451 18.17,24.36 C18.29,24.58 18.41,24.79 18.54,24.99 Z" id="Shape" fill="#C03A2B"></path>
            <path d="M41,16 C41,17.376 39.575,18.546 39.236,19.815 C38.885,21.128 39.523,22.852 38.858,24.002 C38.184,25.168 36.365,25.473 35.419,26.419 C34.473,27.365 34.168,29.184 33,29.858 C31.85,30.524 30.126,29.885 28.813,30.236 C27.546,30.575 26.376,32 25,32 C23.624,32 22.454,30.575 21.185,30.236 C19.872,29.885 18.148,30.523 16.998,29.858 C15.832,29.184 15.527,27.365 14.581,26.419 C13.635,25.473 11.816,25.168 11.142,24 C10.476,22.85 11.115,21.126 10.764,19.813 C10.425,18.546 9,17.376 9,16 C9,14.624 10.425,13.454 10.764,12.185 C11.115,10.872 10.477,9.148 11.142,7.998 C11.816,6.832 13.635,6.527 14.581,5.581 C15.527,4.635 15.832,2.816 17,2.142 C18.15,1.476 19.874,2.115 21.187,1.764 C22.454,1.425 23.624,0 25,0 C26.376,0 27.546,1.425 28.815,1.764 C30.128,2.115 31.852,1.477 33.002,2.142 C34.168,2.816 34.473,4.635 35.419,5.581 C36.365,6.527 38.184,6.832 38.858,8 C39.524,9.15 38.885,10.874 39.236,12.187 C39.575,13.454 41,14.624 41,16 Z" id="Shape" fill="#FF5364"></path>
            <path d="M35.609,51.247 C35.2434748,51.2474675 34.9068174,51.0484639 34.731,50.728 L28.685,39.7 C28.5046598,39.3861718 28.5079809,38.9993892 28.6936834,38.688704 C28.8793859,38.3780188 29.218479,38.1919335 29.5802885,38.2021586 C29.9420981,38.2123836 30.2701404,38.4173228 30.438,38.738 L36.485,49.765 C36.654911,50.0746972 36.6488237,50.4510612 36.4689862,50.7551015 C36.2891486,51.0591419 35.962245,51.2457455 35.609,51.246 L35.609,51.247 Z" id="Shape" fill="#E64C3C"></path>
            <circle id="Oval" fill="#F3D55B" cx="25" cy="16" r="11"></circle>
            <path d="M21,19 C20.8028084,18.999847 20.6100634,18.9413972 20.446,18.832 L17.446,16.832 C17.1678449,16.6465268 17.0007756,16.3343211 17.0007756,16 C17.0007756,15.6656789 17.1678449,15.3534732 17.446,15.168 L20.446,13.168 C20.9055009,12.861482 21.526482,12.9854991 21.833,13.445 C22.139518,13.9045009 22.0155009,14.525482 21.556,14.832 L19.8,16 L21.552,17.168 C21.9181979,17.4121763 22.0816901,17.8670772 21.9547105,18.2885023 C21.8277309,18.7099274 21.440138,18.9987809 21,19 Z" id="Shape" fill="#FF5364"></path>
            <path d="M29,19 C28.5591231,19.0005403 28.1699098,18.7122901 28.0418732,18.290414 C27.9138366,17.868538 28.0771898,17.4125875 28.444,17.168 L30.2,16 L28.448,14.832 C27.9884991,14.525482 27.864482,13.9045009 28.171,13.445 C28.4775181,12.9854991 29.0984991,12.861482 29.558,13.168 L32.558,15.168 C32.8361551,15.3534732 33.0032244,15.6656789 33.0032244,16 C33.0032244,16.3343211 32.8361551,16.6465268 32.558,16.832 L29.558,18.832 C29.3928034,18.942155 29.1985539,19.0006387 29,19 Z" id="Shape" fill="#FF5364"></path>
            <path d="M24,21 C23.9180567,21.0003256 23.8364037,20.990245 23.757,20.97 C23.499559,20.9057654 23.2781999,20.7418511 23.1416593,20.5143459 C23.0051186,20.2868406 22.9645913,20.0143975 23.029,19.757 L25.029,11.757 C25.1663346,11.2249407 25.7072442,10.9033712 26.2402708,11.0369026 C26.7732973,11.170434 27.0987214,11.7090334 26.969,12.243 L24.969,20.243 C24.8576317,20.6875697 24.4583065,20.9995296 24,21 Z" id="Shape" fill="#FF5364"></path>
        </g>
    </g>
</svg>