<?xml version="1.0" encoding="UTF-8"?>
<svg width="58px" height="58px" viewBox="0 0 58 58" version="1.1" xmlns="http://www.w3.org/2000/svg" xmlns:xlink="http://www.w3.org/1999/xlink">
    <!-- Generator: Sketch 51.3 (57544) - http://www.bohemiancoding.com/sketch -->
    <title>032 - Solution Out Of a Box</title>
    <desc>Created with Sketch.</desc>
    <defs></defs>
    <g id="Page-1" stroke="none" stroke-width="1" fill="none" fill-rule="evenodd">
        <g id="032---Solution-Out-Of-a-Box" fill-rule="nonzero">
            <path d="M10,22 L18,15 L29,12 C33.5039281,12.6978244 37.8828393,14.0451817 42,16 C45.334,17.755 48,22 48,22 L29,35 L10,22 Z" id="Shape" fill="#D25627"></path>
            <path d="M48,35.13 L48,49 L30.284,57.392 C29.4712642,57.7768851 28.5287358,57.7768851 27.716,57.392 L10,49 L10,35.13 L18,35.9 C18.3433862,36.0685724 18.7535023,36.021702 19.05,35.78 L29,28 L38.95,35.78 C39.2464977,36.021702 39.6566138,36.0685724 40,35.9 L48,35.13 Z" id="Shape" fill="#E57E25"></path>
            <path d="M33.654,28.8 C34.4728324,26.7148866 33.80488,24.3396169 32.0192902,22.9868962 C30.2337004,21.6341754 27.7662996,21.6341754 25.9807098,22.9868962 C24.19512,24.3396169 23.5271676,26.7148866 24.346,28.8 L29,31 L33.654,28.8 Z" id="Shape" fill="#F9EAB0"></path>
            <path d="M29,19 C28.4477153,19 28,18.5522847 28,18 L28,17 C28,16.4477153 28.4477153,16 29,16 C29.5522847,16 30,16.4477153 30,17 L30,18 C30,18.5522847 29.5522847,19 29,19 Z" id="Shape" fill="#F9EAB0"></path>
            <path d="M22.636,21.636 C22.3708052,21.6359434 22.1164927,21.5305494 21.929,21.343 L21.222,20.636 C20.8430278,20.2436211 20.8484476,19.6199152 21.2341814,19.2341814 C21.6199152,18.8484476 22.2436211,18.8430278 22.636,19.222 L23.343,19.929 C23.6289079,20.2149943 23.7144219,20.6450366 23.559678,21.0186546 C23.4049341,21.3922725 23.0403959,21.6359137 22.636,21.636 Z" id="Shape" fill="#F9EAB0"></path>
            <path d="M35.364,21.636 C34.9596041,21.6359137 34.5950659,21.3922725 34.440322,21.0186546 C34.2855781,20.6450366 34.3710921,20.2149943 34.657,19.929 L35.364,19.222 C35.7563789,18.8430278 36.3800848,18.8484476 36.7658186,19.2341814 C37.1515524,19.6199152 37.1569722,20.2436211 36.778,20.636 L36.071,21.343 C35.8835073,21.5305494 35.6291948,21.6359434 35.364,21.636 Z" id="Shape" fill="#F9EAB0"></path>
            <path d="M35,50 C34.5951643,50.000319 34.2300763,49.75652 34.0752414,49.3824636 C33.9204066,49.0084072 34.0063761,48.5779 34.293,48.292 L36.586,46 L34.293,43.707 C34.0402346,43.4544132 33.9414232,43.0861647 34.033787,42.74097 C34.1261509,42.3957754 34.3956577,42.1260779 34.740787,42.03347 C35.0859163,41.9408621 35.4542346,42.0394132 35.707,42.292 L38.707,45.292 C38.894777,45.4795683 39.0002867,45.7340908 39.0002867,45.9995 C39.0002867,46.2649092 38.894777,46.5194317 38.707,46.707 L35.707,49.707 C35.5195073,49.8945494 35.2651948,49.9999434 35,50 Z" id="Shape" fill="#2C3E50"></path>
            <path d="M23,50 C22.7348052,49.9999434 22.4804927,49.8945494 22.293,49.707 L19.293,46.707 C19.105223,46.5194317 18.9997133,46.2649092 18.9997133,45.9995 C18.9997133,45.7340908 19.105223,45.4795683 19.293,45.292 L22.293,42.292 C22.5457654,42.0394132 22.9140837,41.9408621 23.259213,42.03347 C23.6043423,42.1260779 23.8738491,42.3957754 23.966213,42.74097 C24.0585768,43.0861647 23.9597654,43.4544132 23.707,43.707 L21.414,46 L23.707,48.292 C23.9936239,48.5779 24.0795934,49.0084072 23.9247586,49.3824636 C23.7699237,49.75652 23.4048357,50.000319 23,50 Z" id="Shape" fill="#2C3E50"></path>
            <path d="M27,52 C26.6679242,52.0002548 26.3573829,51.8356458 26.1711964,51.5606749 C25.9850099,51.2857041 25.9474677,50.9362437 26.071,50.628 L30.071,40.628 C30.2761738,40.1149275 30.8584275,39.8653262 31.3715,40.0705 C31.8845725,40.2756738 32.1341738,40.8579275 31.929,41.371 L27.929,51.371 C27.7771898,51.7509891 27.4091919,52.0001502 27,52 Z" id="Shape" fill="#2C3E50"></path>
            <path d="M29,31 L38.947,38.781 C39.2464034,39.018671 39.6551065,39.0648587 40,38.9 L57.428,30.681 C57.7402499,30.5341236 57.9547136,30.2366398 57.9953859,29.8939761 C58.0360581,29.5513123 57.8971916,29.2118903 57.628,28.996 L48,22 L29,31 Z" id="Shape" fill="#F29C1F"></path>
            <path d="M29,31 L19.053,38.781 C18.7535966,39.018671 18.3448935,39.0648587 18,38.9 L0.572,30.685 C0.260163929,30.5375225 0.0463534907,30.2397402 0.00629671565,29.8971226 C-0.0337600594,29.554505 0.105593225,29.2154329 0.375,29 L10,22 L29,31 Z" id="Shape" fill="#F29C1F"></path>
            <path d="M10,22 L0.232,10.525 C0.038766165,10.2931823 -0.0394404506,9.98649633 0.0191858599,9.69045287 C0.0778121705,9.39440942 0.267000124,9.14067636 0.534,9 L18,0.115 C18.4176172,-0.104719147 18.931996,-0.00259369799 19.234,0.36 L29,12 L10,22 Z" id="Shape" fill="#FAC176"></path>
            <path d="M48,22 L57.768,10.525 C57.9613859,10.2934496 58.0399019,9.98696976 57.9816701,9.69095834 C57.9234384,9.39494692 57.7346834,9.14104497 57.468,9 L40,0.115 C39.5823828,-0.104719147 39.068004,-0.00259369799 38.766,0.36 L29,12 L48,22 Z" id="Shape" fill="#FAC176"></path>
        </g>
    </g>
</svg>