<?xml version="1.0" encoding="UTF-8"?>
<svg width="43px" height="58px" viewBox="0 0 43 58" version="1.1" xmlns="http://www.w3.org/2000/svg" xmlns:xlink="http://www.w3.org/1999/xlink">
    <!-- Generator: Sketch 51.3 (57544) - http://www.bohemiancoding.com/sketch -->
    <title>068 - Programmer Tasks</title>
    <desc>Created with Sketch.</desc>
    <defs></defs>
    <g id="Page-1" stroke="none" stroke-width="1" fill="none" fill-rule="evenodd">
        <g id="068---Programmer-Tasks" transform="translate(0.000000, -1.000000)" fill-rule="nonzero">
            <path d="M26,5 L22.9,5 C22.4172216,4.9927694 22.0066469,4.64581081 21.919,4.171 C21.5289488,2.32047419 19.8961863,0.995987273 18.005,0.995987273 C16.1138137,0.995987273 14.4810512,2.32047419 14.091,4.171 C14.0029853,4.64763536 13.5896692,4.99513943 13.105,5 L10,5 C9.44771525,5 9,5.44771525 9,6 L9,11 L27,11 L27,6 C27,5.44771525 26.5522847,5 26,5 Z" id="Shape" fill="#BDC3C7"></path>
            <path d="M36,35.336 L36,11 C36,9.8954305 35.1045695,9 34,9 L2,9 C0.8954305,9 0,9.8954305 0,11 L0,57 C0,58.1045695 0.8954305,59 2,59 L34,59 C35.1045695,59 36,58.1045695 36,57 L36,48 L16.432,48 C16.2385422,48.0008017 16.0517253,47.9294975 15.908,47.8 C8.057,40.72 4,25.878 4,13 L32,13 C31.9951863,20.6238974 33.3497151,28.1875859 36,35.336 Z" id="Shape" fill="#F3D55B"></path>
            <circle id="Oval" fill="#7F8C8D" cx="18" cy="5" r="1"></circle>
            <path d="M42.783,46.707 C35.682,39.272 32,25.248 32,13 L4,13 C4,25.878 8.057,40.72 15.908,47.8 C16.0517253,47.9294975 16.2385422,48.0008017 16.432,48 L42.232,48 C42.5394804,48.002781 42.8184202,47.8202444 42.9389665,47.5373655 C43.0595127,47.2544865 42.9979748,46.9268585 42.783,46.707 Z" id="Shape" fill="#E6E7E8"></path>
            <path d="M16.432,48 C16.2385422,48.0008017 16.0517253,47.9294975 15.908,47.8 C8.057,40.72 4,25.878 4,13 L4,53 C4,54.1045695 4.8954305,55 6,55 L30,55 C31.1045695,55 32,54.1045695 32,53 L32,48 L16.432,48 Z" id="Shape" fill="#95A5A5"></path>
            <path d="M15,25 C14.8028084,24.999847 14.6100634,24.9413972 14.446,24.832 L11.446,22.832 C11.1678449,22.6465268 11.0007756,22.3343211 11.0007756,22 C11.0007756,21.6656789 11.1678449,21.3534732 11.446,21.168 L14.446,19.168 C14.743245,18.9697176 15.1236931,18.9450754 15.4440331,19.1033559 C15.7643732,19.2616364 15.975938,19.578793 15.9990331,19.9353559 C16.0221282,20.2919188 15.853245,20.6337176 15.556,20.832 L13.8,22 L15.552,23.168 C15.9181979,23.4121763 16.0816901,23.8670772 15.9547105,24.2885023 C15.8277309,24.7099274 15.440138,24.9987809 15,25 Z" id="Shape" fill="#2C3E50"></path>
            <path d="M23,25 C22.5591231,25.0005403 22.1699098,24.7122901 22.0418732,24.290414 C21.9138366,23.868538 22.0771898,23.4125875 22.444,23.168 L24.2,22 L22.448,20.832 C22.150755,20.6337176 21.9818718,20.2919188 22.0049669,19.9353559 C22.028062,19.578793 22.2396268,19.2616364 22.5599669,19.1033559 C22.8803069,18.9450754 23.260755,18.9697176 23.558,19.168 L26.558,21.168 C26.8361551,21.3534732 27.0032244,21.6656789 27.0032244,22 C27.0032244,22.3343211 26.8361551,22.6465268 26.558,22.832 L23.558,24.832 C23.3928034,24.942155 23.1985539,25.0006387 23,25 Z" id="Shape" fill="#2C3E50"></path>
            <path d="M18,27 C17.9180874,26.9998225 17.8364963,26.9897495 17.757,26.97 C17.2213791,26.8362184 16.8955055,26.2936925 17.029,25.758 L19.029,17.758 C19.1726734,17.2340783 19.7083531,16.9206979 20.2354607,17.0522031 C20.7625682,17.1837083 21.0882665,17.7119892 20.969,18.242 L18.969,26.242 C18.8580197,26.6869668 18.4585975,26.9994146 18,27 Z" id="Shape" fill="#2C3E50"></path>
            <circle id="Oval" fill="#2C3E50" cx="13" cy="33" r="1"></circle>
            <circle id="Oval" fill="#2C3E50" cx="15" cy="38" r="1"></circle>
            <circle id="Oval" fill="#2C3E50" cx="18" cy="43" r="1"></circle>
            <path d="M25,34 L17,34 C16.4477153,34 16,33.5522847 16,33 C16,32.4477153 16.4477153,32 17,32 L25,32 C25.5522847,32 26,32.4477153 26,33 C26,33.5522847 25.5522847,34 25,34 Z" id="Shape" fill="#2C3E50"></path>
            <path d="M29,44 L23,44 C22.4477153,44 22,43.5522847 22,43 C22,42.4477153 22.4477153,42 23,42 L29,42 C29.5522847,42 30,42.4477153 30,43 C30,43.5522847 29.5522847,44 29,44 Z" id="Shape" fill="#2C3E50"></path>
            <path d="M32,39 L19,39 C18.4477153,39 18,38.5522847 18,38 C18,37.4477153 18.4477153,37 19,37 L32,37 C32.5522847,37 33,37.4477153 33,38 C33,38.5522847 32.5522847,39 32,39 Z" id="Shape" fill="#2C3E50"></path>
        </g>
    </g>
</svg>