<?xml version="1.0" encoding="UTF-8"?>
<svg width="60px" height="59px" viewBox="0 0 60 59" version="1.1" xmlns="http://www.w3.org/2000/svg" xmlns:xlink="http://www.w3.org/1999/xlink">
    <!-- Generator: Sketch 51.3 (57544) - http://www.bohemiancoding.com/sketch -->
    <title>040 - Learning Algorithm</title>
    <desc>Created with Sketch.</desc>
    <defs></defs>
    <g id="Page-1" stroke="none" stroke-width="1" fill="none" fill-rule="evenodd">
        <g id="040---Learning-Algorithm" fill-rule="nonzero">
            <path d="M30,53.5 C31.1816073,53.3968155 32.3029259,52.9328578 33.212,52.171 C33.8222226,51.711767 34.5363256,51.4101882 35.291,51.293 L56.684,49.371 C57.2621313,49.2784932 57.8517649,49.4439607 58.2973562,49.8237523 C58.7429476,50.2035438 58.9997429,50.7595146 59,51.345 L59,52.234 C59.0002197,53.2428392 58.2490532,54.093904 57.248,54.219 L36.287,56.839 C35.6150419,56.910722 34.9815704,57.1879968 34.473,57.633 C33.207306,58.6356144 31.6099358,59.123789 30,59 C28.3900642,59.123789 26.792694,58.6356144 25.527,57.633 C25.0184296,57.1879968 24.3849581,56.910722 23.713,56.839 L2.752,54.219 C1.7509468,54.093904 0.999780296,53.2428392 1,52.234 L1,51.345 C1.00025708,50.7595146 1.25705245,50.2035438 1.70264377,49.8237523 C2.1482351,49.4439607 2.73786873,49.2784932 3.316,49.371 L24.709,51.293 C25.4636744,51.4101882 26.1777774,51.711767 26.788,52.171 C27.6970741,52.9328578 28.8183927,53.3968155 30,53.5 Z" id="Shape" fill="#802D40"></path>
            <path d="M33.25,53 L30,55 C28.8188545,54.8966385 27.6981318,54.4322893 26.79,53.67 C26.1786395,53.2117203 25.4646312,52.9096398 24.71,52.79 L3.32,49.37 L3.26,49.37 L5.95,42.91 C5.95,42.91 22.483,44.54 26.333,45.5 C28.833,46.12 33.25,50 33.25,53 Z" id="Shape" fill="#BDC3C7"></path>
            <path d="M56.74,49.37 L56.68,49.37 L35.29,52.79 C34.5353688,52.9096398 33.8213605,53.2117203 33.21,53.67 C32.3018682,54.4322893 31.1811455,54.8966385 30,55 L27.5,51.5 C27.5,48.5 30.833,46.62 33.333,46 C37.183,45.04 54.05,42.91 54.05,42.91 L56.74,49.37 Z" id="Shape" fill="#BDC3C7"></path>
            <path d="M30,49 C29.4477153,49 29,48.5522847 29,48 C29,42.364 28.245,39.785 20.648,36.937 C12.376,33.837 10.194,29.625 10.105,29.447 C9.85812873,28.9527052 10.0587052,28.3518713 10.553,28.105 C11.0472949,27.8581287 11.6481287,28.0587052 11.895,28.553 C11.91,28.583 13.895,32.269 21.352,35.063 C29.659,38.179 31,41.429 31,48 C31,48.5522847 30.5522847,49 30,49 Z" id="Shape" fill="#BDC3C7"></path>
            <path d="M30,49 C29.4477153,49 29,48.5522847 29,48 C29,41.429 30.341,38.179 38.648,35.063 C46.103,32.269 48.09,28.583 48.109,28.545 C48.3597784,28.0560643 48.9580836,27.8610743 49.4487978,28.1083547 C49.9395119,28.355635 50.1387696,28.9525325 49.895,29.445 C49.806,29.623 47.624,33.832 39.352,36.935 C31.755,39.785 31,42.364 31,48 C31,48.5522847 30.5522847,49 30,49 Z" id="Shape" fill="#BDC3C7"></path>
            <path d="M30,48 L30,53.1 C30,50.1 28.5,48.72 26,48.1 C22.15,47.14 5.95,42.91 5.95,42.91 L7.31,39.64 C7.70568328,38.7064387 8.73448249,38.2134724 9.71,38.49 C13.41,39.55 22.15,42.04 26,43 C28.5,43.62 30,45 30,48 Z" id="Shape" fill="#E6E7E8"></path>
            <path d="M54.05,42.91 C54.05,42.91 37.85,47.14 34,48.1 C31.5,48.72 30,50.1 30,53.1 L30,48 C30,45 31.5,43.63 34,43 C37.85,42.04 46.59,39.55 50.29,38.49 C51.2655175,38.2134724 52.2943167,38.7064387 52.69,39.64 L54.05,42.91 Z" id="Shape" fill="#E6E7E8"></path>
            <path d="M26,8 C25.8028084,7.99984696 25.6100634,7.94139724 25.446,7.832 L22.446,5.832 C22.1678449,5.64652682 22.0007756,5.33432107 22.0007756,5 C22.0007756,4.66567893 22.1678449,4.35347318 22.446,4.168 L25.446,2.168 C25.743245,1.96971759 26.1236931,1.9450754 26.4440331,2.10335589 C26.7643732,2.26163639 26.975938,2.578793 26.9990331,2.9353559 C27.0221283,3.2919188 26.853245,3.6337176 26.556,3.832 L24.8,5 L26.552,6.168 C26.9181979,6.41217626 27.0816901,6.86707715 26.9547105,7.28850229 C26.8277309,7.70992742 26.440138,7.99878087 26,8 Z" id="Shape" fill="#2C3E50"></path>
            <path d="M34,8 C33.5591231,8.00054029 33.1699098,7.71229007 33.0418732,7.29041403 C32.9138366,6.868538 33.0771898,6.41258747 33.444,6.168 L35.2,5 L33.445,3.832 C33.147755,3.6337176 32.9788718,3.2919188 33.0019669,2.9353559 C33.025062,2.578793 33.2366268,2.2616364 33.5569669,2.1033559 C33.8773069,1.94507541 34.257755,1.9697176 34.555,2.168 L37.555,4.168 C37.8331551,4.35347318 38.0002244,4.66567893 38.0002244,5 C38.0002244,5.33432107 37.8331551,5.64652682 37.555,5.832 L34.555,7.832 C34.3906531,7.94158612 34.1975323,8.00004431 34,8 Z" id="Shape" fill="#2C3E50"></path>
            <path d="M29,10 C28.9180567,10.0003256 28.8364037,9.99024501 28.757,9.97 C28.499559,9.90576541 28.2781999,9.74185109 28.1416593,9.51434587 C28.0051186,9.28684064 27.9645913,9.01439753 28.029,8.757 L30.029,0.757 C30.1663346,0.224940659 30.7072442,-0.0966287643 31.2402708,0.0369026263 C31.7732973,0.170434017 32.0987214,0.709033449 31.969,1.243 L29.969,9.243 C29.8576317,9.68756969 29.4583065,9.99952958 29,10 Z" id="Shape" fill="#2C3E50"></path>
            <path d="M41,10 L39,10 C38.4477153,10 38,9.55228475 38,9 C38,8.44771525 38.4477153,8 39,8 L41,8 L41,2 L39,2 C38.4477153,2 38,1.55228475 38,1 C38,0.44771525 38.4477153,1.01453063e-16 39,0 L41,0 C42.1045695,6.76353751e-17 43,0.8954305 43,2 L43,8 C43,9.1045695 42.1045695,10 41,10 Z" id="Shape" fill="#2C3E50"></path>
            <path d="M21,10 L19,10 C17.8954305,10 17,9.1045695 17,8 L17,2 C17,0.8954305 17.8954305,2.02906125e-16 19,0 L21,0 C21.5522847,3.38176876e-17 22,0.44771525 22,1 C22,1.55228475 21.5522847,2 21,2 L19,2 L19,8 L21,8 C21.5522847,8 22,8.44771525 22,9 C22,9.55228475 21.5522847,10 21,10 Z" id="Shape" fill="#2C3E50"></path>
            <path d="M3,14 L1,14 C0.44771525,14 6.76353751e-17,13.5522847 0,13 C-6.76353751e-17,12.4477153 0.44771525,12 1,12 L3,12 C3.55228475,12 4,12.4477153 4,13 C4,13.5522847 3.55228475,14 3,14 Z" id="Shape" fill="#2C3E50"></path>
            <path d="M3,18 L1,18 C0.44771525,18 6.76353751e-17,17.5522847 0,17 C-6.76353751e-17,16.4477153 0.44771525,16 1,16 L3,16 C3.55228475,16 4,16.4477153 4,17 C4,17.5522847 3.55228475,18 3,18 Z" id="Shape" fill="#FF5364"></path>
            <path d="M3,22 L1,22 C0.44771525,22 6.76353751e-17,21.5522847 0,21 C-6.76353751e-17,20.4477153 0.44771525,20 1,20 L3,20 C3.55228475,20 4,20.4477153 4,21 C4,21.5522847 3.55228475,22 3,22 Z" id="Shape" fill="#2C3E50"></path>
            <path d="M3,26 L1,26 C0.44771525,26 6.76353751e-17,25.5522847 0,25 C-6.76353751e-17,24.4477153 0.44771525,24 1,24 L3,24 C3.55228475,24 4,24.4477153 4,25 C4,25.5522847 3.55228475,26 3,26 Z" id="Shape" fill="#FF5364"></path>
            <path d="M3,30 L1,30 C0.44771525,30 6.76353751e-17,29.5522847 0,29 C-6.76353751e-17,28.4477153 0.44771525,28 1,28 L3,28 C3.55228475,28 4,28.4477153 4,29 C4,29.5522847 3.55228475,30 3,30 Z" id="Shape" fill="#2C3E50"></path>
            <path d="M3,34 L1,34 C0.44771525,34 6.76353751e-17,33.5522847 0,33 C-6.76353751e-17,32.4477153 0.44771525,32 1,32 L3,32 C3.55228475,32 4,32.4477153 4,33 C4,33.5522847 3.55228475,34 3,34 Z" id="Shape" fill="#FF5364"></path>
            <path d="M3,38 L1,38 C0.44771525,38 6.76353751e-17,37.5522847 0,37 C-6.76353751e-17,36.4477153 0.44771525,36 1,36 L3,36 C3.55228475,36 4,36.4477153 4,37 C4,37.5522847 3.55228475,38 3,38 Z" id="Shape" fill="#2C3E50"></path>
            <path d="M59,14 L51,14 C50.4477153,14 50,13.5522847 50,13 C50,12.4477153 50.4477153,12 51,12 L59,12 C59.5522847,12 60,12.4477153 60,13 C60,13.5522847 59.5522847,14 59,14 Z" id="Shape" fill="#2C3E50"></path>
            <path d="M41,14 L30,14 C29.4477153,14 29,13.5522847 29,13 C29,12.4477153 29.4477153,12 30,12 L41,12 C41.5522847,12 42,12.4477153 42,13 C42,13.5522847 41.5522847,14 41,14 Z" id="Shape" fill="#2C3E50"></path>
            <path d="M22,14 L7,14 C6.44771525,14 6,13.5522847 6,13 C6,12.4477153 6.44771525,12 7,12 L22,12 C22.5522847,12 23,12.4477153 23,13 C23,13.5522847 22.5522847,14 22,14 Z" id="Shape" fill="#2C3E50"></path>
            <path d="M55,18 L7,18 C6.44771525,18 6,17.5522847 6,17 C6,16.4477153 6.44771525,16 7,16 L55,16 C55.5522847,16 56,16.4477153 56,17 C56,17.5522847 55.5522847,18 55,18 Z" id="Shape" fill="#FF5364"></path>
            <path d="M26,22 L7,22 C6.44771525,22 6,21.5522847 6,21 C6,20.4477153 6.44771525,20 7,20 L26,20 C26.5522847,20 27,20.4477153 27,21 C27,21.5522847 26.5522847,22 26,22 Z" id="Shape" fill="#2C3E50"></path>
            <path d="M15,26 L7,26 C6.44771525,26 6,25.5522847 6,25 C6,24.4477153 6.44771525,24 7,24 L15,24 C15.5522847,24 16,24.4477153 16,25 C16,25.5522847 15.5522847,26 15,26 Z" id="Shape" fill="#FF5364"></path>
            <path d="M40,30 L17,30 C16.4477153,30 16,29.5522847 16,29 C16,28.4477153 16.4477153,28 17,28 L40,28 C40.5522847,28 41,28.4477153 41,29 C41,29.5522847 40.5522847,30 40,30 Z" id="Shape" fill="#2C3E50"></path>
            <path d="M30,34 L27,34 C26.4477153,34 26,33.5522847 26,33 C26,32.4477153 26.4477153,32 27,32 L30,32 C30.5522847,32 31,32.4477153 31,33 C31,33.5522847 30.5522847,34 30,34 Z" id="Shape" fill="#FF5364"></path>
            <path d="M46,22 L30,22 C29.4477153,22 29,21.5522847 29,21 C29,20.4477153 29.4477153,20 30,20 L46,20 C46.5522847,20 47,20.4477153 47,21 C47,21.5522847 46.5522847,22 46,22 Z" id="Shape" fill="#2C3E50"></path>
            <path d="M59,26 L36,26 C35.4477153,26 35,25.5522847 35,25 C35,24.4477153 35.4477153,24 36,24 L59,24 C59.5522847,24 60,24.4477153 60,25 C60,25.5522847 59.5522847,26 59,26 Z" id="Shape" fill="#FF5364"></path>
            <path d="M59,30 L53,30 C52.4477153,30 52,29.5522847 52,29 C52,28.4477153 52.4477153,28 53,28 L59,28 C59.5522847,28 60,28.4477153 60,29 C60,29.5522847 59.5522847,30 59,30 Z" id="Shape" fill="#2C3E50"></path>
            <path d="M59,34 L57,34 C56.4477153,34 56,33.5522847 56,33 C56,32.4477153 56.4477153,32 57,32 L59,32 C59.5522847,32 60,32.4477153 60,33 C60,33.5522847 59.5522847,34 59,34 Z" id="Shape" fill="#FF5364"></path>
        </g>
    </g>
</svg>