<?xml version="1.0" encoding="UTF-8"?>
<svg width="58px" height="58px" viewBox="0 0 58 58" version="1.1" xmlns="http://www.w3.org/2000/svg" xmlns:xlink="http://www.w3.org/1999/xlink">
    <!-- Generator: Sketch 51.3 (57544) - http://www.bohemiancoding.com/sketch -->
    <title>012 - Love Coding</title>
    <desc>Created with Sketch.</desc>
    <defs></defs>
    <g id="Page-1" stroke="none" stroke-width="1" fill="none" fill-rule="evenodd">
        <g id="012---Love-Coding" transform="translate(0.000000, -1.000000)" fill-rule="nonzero">
            <path d="M58,29 L58,35 L0,35 L0,29 C0.00329480111,27.8967981 0.896798134,27.0032948 2,27 L56,27 C57.1032019,27.0032948 57.9967052,27.8967981 58,29 Z" id="Shape" fill="#2C3E50"></path>
            <path d="M58,35 L58,57 C57.9967052,58.1032019 57.1032019,58.9967052 56,59 L2,59 C0.896798134,58.9967052 0.00329480111,58.1032019 0,57 L0,35 L58,35 Z" id="Shape" fill="#B0D3F0"></path>
            <path d="M29.84,4.563 C31.6965136,1.99499432 34.8060128,0.644221694 37.95,1.04 C43.218351,1.59405317 47.528307,5.48230401 48.62,10.666 C51.345,22.543 38.737,32.074 32.42,36.018 C30.3277297,37.3289832 27.6702703,37.3289832 25.578,36.018 C19.262,32.074 6.654,22.543 9.378,10.666 C10.4699258,5.48166104 14.7808823,1.59323645 20.05,1.04 C23.1939872,0.644221694 26.3034864,1.99499432 28.16,4.563 C28.3557983,4.83122193 28.6679157,4.98981161 29,4.98981161 C29.3320843,4.98981161 29.6442017,4.83122193 29.84,4.563 Z" id="Shape" fill="#FF5364"></path>
            <path d="M16,7.918 C15.5838838,7.91787427 15.2113332,7.66007864 15.0645673,7.27070423 C14.9178014,6.88132981 15.0274967,6.4417624 15.34,6.167 C16.7194107,4.93809459 18.4593803,4.18843433 20.3,4.03 C20.54,4.01 20.774,4 21,4 C21.5522847,4 22,4.44771525 22,5 C22,5.55228475 21.5522847,6 21,6 C20.829,6 20.651,6.008 20.468,6.023 C19.0542637,6.14621196 17.7183687,6.72364976 16.66,7.669 C16.4775502,7.82941548 16.2429425,7.91792657 16,7.918 Z" id="Shape" fill="#FFFFFF"></path>
            <path d="M13.424,18 C12.9730155,17.9995183 12.5781577,17.6972309 12.46,17.262 C11.9166042,15.3306256 11.8629894,13.2942929 12.304,11.337 C12.3801012,10.9847191 12.6398789,10.7006419 12.9839692,10.5934267 C13.3280595,10.4862115 13.7032231,10.5724471 13.9659616,10.8191489 C14.2287,11.0658506 14.3383611,11.4348476 14.253,11.785 C13.8866994,13.4217646 13.9337828,15.1239862 14.39,16.738 C14.4716479,17.0387467 14.408422,17.3603654 14.2190042,17.6078242 C14.0295865,17.8552829 13.7356325,18.0002905 13.424,18 Z" id="Shape" fill="#FFFFFF"></path>
            <circle id="Oval" fill="#CC4B4C" cx="4" cy="31" r="1"></circle>
            <circle id="Oval" fill="#F0C419" cx="8" cy="31" r="1"></circle>
            <path d="M23,53 C22.7728397,53.0001065 22.5524122,52.9228687 22.375,52.781 L17.375,48.781 C17.1376874,48.5912316 16.999531,48.3038574 16.999531,48 C16.999531,47.6961426 17.1376874,47.4087684 17.375,47.219 L22.375,43.219 C22.8063344,42.8738221 23.435822,42.9436656 23.781,43.375 C24.1261779,43.8063344 24.0563344,44.435822 23.625,44.781 L19.6,48 L23.624,51.219 C23.9556357,51.4841942 24.0836269,51.9299129 23.9432201,52.3306574 C23.8028132,52.7314019 23.4246295,52.9997746 23,53 Z" id="Shape" fill="#2C3E50"></path>
            <path d="M35,53 C34.575187,53.0001993 34.1966134,52.7319767 34.0559454,52.3311292 C33.9152775,51.9302818 34.0432209,51.4843089 34.375,51.219 L38.4,48 L34.376,44.781 C33.9446656,44.435822 33.874822,43.8063344 34.22,43.375 C34.565178,42.9436656 35.1946656,42.873822 35.626,43.219 L40.626,47.219 C40.8633126,47.4087684 41.001469,47.6961426 41.001469,48 C41.001469,48.3038574 40.8633126,48.5912316 40.626,48.781 L35.626,52.781 C35.44832,52.9230833 35.2275032,53.0003339 35,53 Z" id="Shape" fill="#2C3E50"></path>
            <path d="M27,56 C26.9069438,56.0001628 26.8143416,55.9870301 26.725,55.961 C26.1944131,55.808922 25.8873751,55.2557166 26.039,54.725 L30.039,40.725 C30.2029459,40.2095391 30.7470459,39.9178725 31.2670777,40.066685 C31.7871094,40.2154974 32.0945518,40.7508415 31.961,41.275 L27.961,55.275 C27.8382928,55.7040043 27.4462082,55.9998018 27,56 Z" id="Shape" fill="#2C3E50"></path>
            <path d="M20,24 C18.3431458,24 17,22.6568542 17,21 L17,17 C17,15.3431458 18.3431458,14 20,14 C21.6568542,14 23,15.3431458 23,17 L23,21 C23,22.6568542 21.6568542,24 20,24 Z M20,16 C19.4477153,16 19,16.4477153 19,17 L19,21 C19,21.5522847 19.4477153,22 20,22 C20.5522847,22 21,21.5522847 21,21 L21,17 C21,16.4477153 20.5522847,16 20,16 Z" id="Shape" fill="#802D40"></path>
            <path d="M28,24 C26.3431458,24 25,22.6568542 25,21 L25,17 C25,15.3431458 26.3431458,14 28,14 C29.6568542,14 31,15.3431458 31,17 L31,21 C31,22.6568542 29.6568542,24 28,24 Z M28,16 C27.4477153,16 27,16.4477153 27,17 L27,21 C27,21.5522847 27.4477153,22 28,22 C28.5522847,22 29,21.5522847 29,21 L29,17 C29,16.4477153 28.5522847,16 28,16 Z" id="Shape" fill="#802D40"></path>
            <path d="M40,24 C38.3431458,24 37,22.6568542 37,21 L37,17 C37,15.3431458 38.3431458,14 40,14 C41.6568542,14 43,15.3431458 43,17 L43,21 C43,22.6568542 41.6568542,24 40,24 Z M40,16 C39.4477153,16 39,16.4477153 39,17 L39,21 C39,21.5522847 39.4477153,22 40,22 C40.5522847,22 41,21.5522847 41,21 L41,17 C41,16.4477153 40.5522847,16 40,16 Z" id="Shape" fill="#802D40"></path>
            <path d="M34,24 C33.4477153,24 33,23.5522847 33,23 L33,15 C33,14.4477153 33.4477153,14 34,14 C34.5522847,14 35,14.4477153 35,15 L35,23 C35,23.5522847 34.5522847,24 34,24 Z" id="Shape" fill="#802D40"></path>
        </g>
    </g>
</svg>