<?xml version="1.0" encoding="UTF-8"?>
<svg width="54px" height="59px" viewBox="0 0 54 59" version="1.1" xmlns="http://www.w3.org/2000/svg" xmlns:xlink="http://www.w3.org/1999/xlink">
    <!-- Generator: Sketch 51.3 (57544) - http://www.bohemiancoding.com/sketch -->
    <title>078 - Coming Up With Code</title>
    <desc>Created with Sketch.</desc>
    <defs></defs>
    <g id="Page-1" stroke="none" stroke-width="1" fill="none" fill-rule="evenodd">
        <g id="078---Coming-Up-With-Code" fill-rule="nonzero">
            <path d="M36.48,41.47 C34.75,43.06 34.11,45.56 34.02,47.99 C29.919,47.845 28.6,49.465 26,49 C24.288,48.694 20.888,46.344 19.78,46.03 C19.7720463,46.0182665 19.7685036,46.004096 19.77,45.99 C19.5368498,44.2770889 18.746129,42.6886186 17.52,41.47 C20.31,43.08 23.54,41 27,41 C30.46,41 33.69,43.08 36.48,41.47 Z" id="Shape" fill="#4482C3"></path>
            <path d="M34.02,47.99 C34,48.21 34,48.43 34,48.65 L34,50.33 C34.002275,50.7631065 33.8616839,51.1848798 33.6,51.53 L33.3,51.93 C29.5,51.775 28.418,53.437 26,53 C24.373,52.706 21.046,50.344 20,50.05 L20,48.65 C20.0012742,47.7720008 19.9276743,46.8954921 19.78,46.03 C24.4322821,47.2450357 29.2124571,47.9029812 34.02,47.99 Z" id="Shape" fill="#3B97D3"></path>
            <path d="M33.3,51.93 L31.4,54.47 C31.1383161,54.8151202 30.997725,55.2368935 31,55.67 L31,55.8 C28.237,55.613 27.913,57.345 26,57 C25.566,56.922 23.152,54.8 22.76,54.72 C22.7125505,54.6330442 22.6590871,54.5495077 22.6,54.47 L20.4,51.53 C20.1383161,51.1848798 19.997725,50.7631065 20,50.33 L19.9999728,50.05 C24.3461326,51.1868024 28.8090573,51.8176519 33.3,51.93 Z" id="Shape" fill="#4482C3"></path>
            <path d="M31,55.8 L31,57 C30.9967052,58.1032019 30.1032019,58.9967052 29,59 L25,59 C23.8967981,58.9967052 23.0032948,58.1032019 23,57 L23,55.67 C23.0024717,55.3380302 22.9198443,55.0109636 22.76,54.72 C25.4789142,55.2669442 28.2319713,55.6277817 31,55.8 Z" id="Shape" fill="#3B97D3"></path>
            <path d="M27,3 C26.4477153,3 26,2.55228475 26,2 L26,1 C26,0.44771525 26.4477153,1.01453063e-16 27,0 C27.5522847,-1.01453063e-16 28,0.44771525 28,1 L28,2 C28,2.55228475 27.5522847,3 27,3 Z" id="Shape" fill="#F9EAB0"></path>
            <path d="M15.5,6.081 C15.1779891,6.08163285 14.8753761,5.92716254 14.687,5.666 L13.187,3.585 C12.8639134,3.13654478 12.9655448,2.51108659 13.414,2.18800001 C13.8624552,1.86491344 14.4879134,1.96654479 14.811,2.415 L16.311,4.496 C16.5306174,4.80047351 16.5612028,5.20230092 16.390199,5.53650686 C16.2191952,5.8707128 15.8754143,6.0809875 15.5,6.081 Z" id="Shape" fill="#F9EAB0"></path>
            <path d="M7.08,14.5 C6.87051745,14.4996026 6.66637353,14.433885 6.496,14.312 L4.415,12.812 C4.12490034,12.6029996 3.96833757,12.255109 4.00428737,11.8993751 C4.04023717,11.5436413 4.26323791,11.2341086 4.58928737,11.0873751 C4.91533683,10.9406416 5.29490034,10.9789996 5.585,11.188 L7.666,12.688 C8.01889503,12.9416549 8.16755666,13.3941993 8.03382709,13.8077112 C7.90009752,14.2212231 7.51459712,14.5010197 7.08,14.5 Z" id="Shape" fill="#F9EAB0"></path>
            <path d="M4,26 L1,26 C0.44771525,26 0,25.5522847 0,25 C0,24.4477153 0.44771525,24 1,24 L4,24 C4.55228475,24 5,24.4477153 5,25 C5,25.5522847 4.55228475,26 4,26 Z" id="Shape" fill="#F9EAB0"></path>
            <path d="M4,40 C3.57668606,40.0001131 3.19916126,39.7336756 3.05744004,39.3347899 C2.91571883,38.9359042 3.04050836,38.490998 3.369,38.224 L6.45,35.724 C6.87974303,35.3962713 7.49211919,35.4692856 7.8327595,35.8888679 C8.17339981,36.3084503 8.11903389,36.9227629 7.71,37.276 L4.629,39.776 C4.45143309,39.9209589 4.22922275,40.0000926 4,40 Z" id="Shape" fill="#F9EAB0"></path>
            <path d="M14,48 C13.6245857,47.9999875 13.2808048,47.7897128 13.109801,47.4555069 C12.9387972,47.1213009 12.9693826,46.7194735 13.189,46.415 L14.689,44.334 C15.0120866,43.8855448 15.6375448,43.7839134 16.086,44.107 C16.5344552,44.4300866 16.6360866,45.0555448 16.313,45.504 L14.813,47.585 C14.6246239,47.8461625 14.3220109,48.0006329 14,48 Z" id="Shape" fill="#F9EAB0"></path>
            <path d="M38.5,6.081 C38.1258075,6.08028819 37.7833219,5.87072505 37.6123661,5.53786666 C37.4414104,5.20500827 37.4705931,4.80455671 37.688,4.5 L39.188,2.419 C39.3970004,2.12890034 39.744891,1.97233757 40.1006249,2.00828737 C40.4563587,2.04423717 40.7658914,2.26723791 40.9126249,2.59328737 C41.0593584,2.91933683 41.0210004,3.29890034 40.812,3.589 L39.312,5.67 C39.1229687,5.92936405 38.8209377,6.08223932 38.5,6.081 Z" id="Shape" fill="#F9EAB0"></path>
            <path d="M46.92,14.5 C46.4854029,14.5010197 46.0999025,14.2212231 45.9661729,13.8077112 C45.8324433,13.3941993 45.981105,12.9416549 46.334,12.688 L48.415,11.188 C48.8634552,10.8649134 49.4889134,10.9665448 49.812,11.415 C50.1350866,11.8634552 50.0334552,12.4889134 49.585,12.812 L47.504,14.312 C47.3336265,14.433885 47.1294826,14.4996026 46.92,14.5 Z" id="Shape" fill="#F9EAB0"></path>
            <path d="M53,26 L50,26 C49.4477153,26 49,25.5522847 49,25 C49,24.4477153 49.4477153,24 50,24 L53,24 C53.5522847,24 54,24.4477153 54,25 C54,25.5522847 53.5522847,26 53,26 Z" id="Shape" fill="#F9EAB0"></path>
            <path d="M50,40 C49.7707773,40.0000926 49.5485669,39.9209589 49.371,39.776 L46.29,37.276 C46.0001513,37.0549569 45.8535394,36.6937083 45.9073616,36.3331871 C45.9611838,35.972666 46.206913,35.66999 46.5486836,35.5432413 C46.8904541,35.4164927 47.274119,35.4857522 47.55,35.724 L50.631,38.224 C50.9594916,38.490998 51.0842812,38.9359042 50.94256,39.3347899 C50.8008387,39.7336756 50.4233139,40.0001131 50,40 Z" id="Shape" fill="#F9EAB0"></path>
            <path d="M40,48 C39.6779891,48.0006329 39.3753761,47.8461625 39.187,47.585 L37.687,45.504 C37.3639134,45.0555448 37.4655448,44.4300866 37.914,44.107 C38.3624552,43.7839135 38.9879134,43.8855448 39.311,44.334 L40.811,46.415 C41.0306174,46.7194735 41.0612028,47.1213009 40.890199,47.4555069 C40.7191952,47.7897128 40.3754143,47.9999875 40,48 Z" id="Shape" fill="#F9EAB0"></path>
            <path d="M46,25 C45.9982514,32.6334437 41.4299628,39.5252583 34.4,42.5 C33.6106494,42.8365053 32.7986544,43.1171949 31.97,43.34 C28.715096,44.2199906 25.284904,44.2199906 22.03,43.34 C21.2013456,43.1171949 20.3893506,42.8365053 19.6,42.5 C10.8344685,38.7933719 6.16351569,29.1733608 8.67173722,19.992813 C11.1799587,10.8122651 20.0934872,4.90367618 29.5260222,6.16894982 C38.9585572,7.43422346 45.9998569,15.4829819 46,25 Z" id="Shape" fill="#F3D55B"></path>
            <path d="M37.88,32.89 L34.4,42.5 C33.6106494,42.8365053 32.7986544,43.1171949 31.97,43.34 L36,32.2 L34.17,30.99 L32.14,32.3 C31.5304281,32.7020518 30.7525051,32.747812 30.1,32.42 L27.02,30.9 L23.9,32.42 C23.2464388,32.7426461 22.4712264,32.6970454 21.86,32.3 L19.88,30.99 L18.01,32.18 L22.03,43.34 C21.2013456,43.1171949 20.3893506,42.8365053 19.6,42.5 L16.12,32.89 C15.800962,32.009439 16.1277294,31.0250005 16.91,30.51 L18.73,29.32 C19.4125198,28.8700659 20.2974802,28.8700659 20.98,29.32 L22.96,30.63 L26.09,29.11 C26.6643705,28.83005 27.3356295,28.83005 27.91,29.11 L30.99,30.63 L33.02,29.32 C33.7025198,28.8700659 34.5874802,28.8700659 35.27,29.32 L37.09,30.51 C37.8722706,31.0250005 38.199038,32.009439 37.88,32.89 Z" id="Shape" fill="#CB8252"></path>
            <path d="M23,22 C22.8028084,21.999847 22.6100634,21.9413972 22.446,21.832 L19.446,19.832 C19.1678449,19.6465268 19.0007756,19.3343211 19.0007756,19 C19.0007756,18.6656789 19.1678449,18.3534732 19.446,18.168 L22.446,16.168 C22.743245,15.9697176 23.1236931,15.9450754 23.4440331,16.1033559 C23.7643732,16.2616364 23.975938,16.578793 23.9990331,16.9353559 C24.0221282,17.2919188 23.853245,17.6337176 23.556,17.832 L21.8,19 L23.552,20.168 C23.9181979,20.4121763 24.0816901,20.8670772 23.9547105,21.2885023 C23.8277309,21.7099274 23.440138,21.9987809 23,22 Z" id="Shape" fill="#2C3E50"></path>
            <path d="M31,22 C30.5591231,22.0005403 30.1699098,21.7122901 30.0418732,21.290414 C29.9138366,20.868538 30.0771898,20.4125875 30.444,20.168 L32.2,19 L30.448,17.832 C30.150755,17.6337176 29.9818718,17.2919188 30.0049669,16.9353559 C30.028062,16.578793 30.2396268,16.2616364 30.5599669,16.1033559 C30.8803069,15.9450754 31.260755,15.9697176 31.558,16.168 L34.558,18.168 C34.8361551,18.3534732 35.0032244,18.6656789 35.0032244,19 C35.0032244,19.3343211 34.8361551,19.6465268 34.558,19.832 L31.558,21.832 C31.3928034,21.942155 31.1985539,22.0006387 31,22 Z" id="Shape" fill="#2C3E50"></path>
            <path d="M26,24 C25.9180874,23.9998225 25.8364963,23.9897495 25.757,23.97 C25.2213791,23.8362184 24.8955055,23.2936925 25.029,22.758 L27.029,14.758 C27.1726734,14.2340783 27.7083531,13.9206979 28.2354607,14.0522031 C28.7625682,14.1837083 29.0882665,14.7119892 28.969,15.242 L26.969,23.242 C26.8580197,23.6869668 26.4585975,23.9994146 26,24 Z" id="Shape" fill="#2C3E50"></path>
        </g>
    </g>
</svg>