<?xml version="1.0" encoding="UTF-8"?>
<svg width="58px" height="59px" viewBox="0 0 58 59" version="1.1" xmlns="http://www.w3.org/2000/svg" xmlns:xlink="http://www.w3.org/1999/xlink">
    <!-- Generator: Sketch 51.3 (57544) - http://www.bohemiancoding.com/sketch -->
    <title>069 - Programmer Teamwork</title>
    <desc>Created with Sketch.</desc>
    <defs></defs>
    <g id="Page-1" stroke="none" stroke-width="1" fill="none" fill-rule="evenodd">
        <g id="069---Programmer-Teamwork" fill-rule="nonzero">
            <path d="M29,24 C28.4477153,24 28,23.5522847 28,23 L28,17 C28,16.4477153 28.4477153,16 29,16 C29.5522847,16 30,16.4477153 30,17 L30,23 C30,23.5522847 29.5522847,24 29,24 Z" id="Shape" fill="#35495E"></path>
            <path d="M7,33 C6.44771525,33 6,32.5522847 6,32 L6,30 C6,29.4477153 6.44771525,29 7,29 C7.55228475,29 8,29.4477153 8,30 L8,32 C8,32.5522847 7.55228475,33 7,33 Z" id="Shape" fill="#35495E"></path>
            <path d="M7,27 C6.44771525,27 6,26.5522847 6,26 L6,24 C6,23.4477153 6.44771525,23 7,23 C7.55228475,23 8,23.4477153 8,24 L8,26 C8,26.5522847 7.55228475,27 7,27 Z" id="Shape" fill="#35495E"></path>
            <path d="M7,21 C6.44771525,21 6,20.5522847 6,20 L6,18 C6,17.4477153 6.44771525,17 7,17 C7.55228475,17 8,17.4477153 8,18 L8,20 C8,20.5522847 7.55228475,21 7,21 Z" id="Shape" fill="#35495E"></path>
            <path d="M7,15 C6.44771525,15 6,14.5522847 6,14 L6,10 C6,8.34314575 7.34314575,7 9,7 L14,7 C14.5522847,7 15,7.44771525 15,8 C15,8.55228475 14.5522847,9 14,9 L9,9 C8.44771525,9 8,9.44771525 8,10 L8,14 C8,14.5522847 7.55228475,15 7,15 Z" id="Shape" fill="#35495E"></path>
            <path d="M51,33 C50.4477153,33 50,32.5522847 50,32 L50,30 C50,29.4477153 50.4477153,29 51,29 C51.5522847,29 52,29.4477153 52,30 L52,32 C52,32.5522847 51.5522847,33 51,33 Z" id="Shape" fill="#35495E"></path>
            <path d="M51,27 C50.4477153,27 50,26.5522847 50,26 L50,24 C50,23.4477153 50.4477153,23 51,23 C51.5522847,23 52,23.4477153 52,24 L52,26 C52,26.5522847 51.5522847,27 51,27 Z" id="Shape" fill="#35495E"></path>
            <path d="M51,21 C50.4477153,21 50,20.5522847 50,20 L50,18 C50,17.4477153 50.4477153,17 51,17 C51.5522847,17 52,17.4477153 52,18 L52,20 C52,20.5522847 51.5522847,21 51,21 Z" id="Shape" fill="#35495E"></path>
            <path d="M51,15 C50.4477153,15 50,14.5522847 50,14 L50,10 C50,9.44771525 49.5522847,9 49,9 L44,9 C43.4477153,9 43,8.55228475 43,8 C43,7.44771525 43.4477153,7 44,7 L49,7 C50.6568542,7 52,8.34314575 52,10 L52,14 C52,14.5522847 51.5522847,15 51,15 Z" id="Shape" fill="#35495E"></path>
            <circle id="Oval" fill="#FDD7AD" cx="29" cy="33" r="10"></circle>
            <circle id="Oval" fill="#CBB292" cx="7" cy="39" r="7"></circle>
            <path d="M44,51 L44,59 L14,59 L14,51 C14,46.581722 17.581722,43 22,43 L36,43 C40.418278,43 44,46.581722 44,51 Z" id="Shape" fill="#B49ACA"></path>
            <path d="M38,53 L38,59 L36,59 L36,53 C36,52.4477153 36.4477153,52 37,52 C37.5522847,52 38,52.4477153 38,53 Z" id="Shape" fill="#955BA5"></path>
            <path d="M22,53 L22,59 L20,59 L20,53 C20,52.4477153 20.4477153,52 21,52 C21.5522847,52 22,52.4477153 22,53 Z" id="Shape" fill="#955BA5"></path>
            <path d="M11,46 L3,46 C1.97146754,46.0000101 0.952684651,46.199352 -8.8817842e-16,46.587 L-8.8817842e-16,59 L14,59 L14,51 C13.9992238,49.631348 14.3515795,48.2856456 15.023,47.093 C13.8031188,46.3772505 12.4143576,45.9999411 11,46 Z" id="Shape" fill="#955BA5"></path>
            <circle id="Oval" fill="#CBB292" cx="51" cy="39" r="7"></circle>
            <path d="M47,46 L55,46 C56.0285325,46.0000101 57.0473153,46.199352 58,46.587 L58,59 L44,59 L44,51 C44.0007762,49.631348 43.6484205,48.2856456 42.977,47.093 C44.1968812,46.3772505 45.5856424,45.9999411 47,46 Z" id="Shape" fill="#955BA5"></path>
            <path d="M22,12 C21.7835593,12.0004356 21.5728912,11.9302129 21.4,11.8 L17.4,8.8 C17.1481942,8.61114562 17,8.3147573 17,8 C17,7.6852427 17.1481942,7.38885438 17.4,7.2 L21.4,4.2 C21.6858125,3.98564063 22.0642734,3.94004355 22.3928203,4.08038474 C22.7213672,4.22072592 22.9500859,4.52568421 22.9928203,4.88038475 C23.0355548,5.2350853 22.8858125,5.58564065 22.6,5.8 L19.667,8 L22.6,10.2 C22.9443443,10.4582582 23.0847973,10.9078856 22.9486833,11.3162278 C22.8125693,11.7245699 22.4304304,12 22,12 Z" id="Shape" fill="#2C3E50"></path>
            <path d="M36,12 C35.5695696,12 35.1874307,11.7245699 35.0513167,11.3162278 C34.9152027,10.9078856 35.0556557,10.4582582 35.4,10.2 L38.333,8 L35.4,5.8 C34.9581722,5.46862915 34.8686292,4.8418278 35.2,4.4 C35.5313708,3.9581722 36.1581722,3.86862915 36.6,4.2 L40.6,7.2 C40.8518058,7.38885438 41,7.6852427 41,8 C41,8.3147573 40.8518058,8.61114562 40.6,8.8 L36.6,11.8 C36.4271088,11.9302129 36.2164407,12.0004356 36,12 Z" id="Shape" fill="#2C3E50"></path>
            <path d="M27,15 C26.6787328,14.9997561 26.3771457,14.8451743 26.1893651,14.5844999 C26.0015845,14.3238255 25.9504794,13.9888053 26.052,13.684 L30.052,1.684 C30.1648959,1.34459769 30.450285,1.09120628 30.800664,1.01927587 C31.151043,0.947345451 31.513181,1.06780397 31.750664,1.33527587 C31.9881471,1.60274776 32.0648959,1.97659769 31.952,2.316 L27.952,14.316 C27.8155808,14.7255928 27.4317111,15.0013983 27,15 Z" id="Shape" fill="#2C3E50"></path>
            <path d="M17,16 L16,16 C14.3431458,16 13,14.6568542 13,13 L13,3 C13,1.34314575 14.3431458,3.04359188e-16 16,0 L17,0 C17.5522847,3.38176876e-17 18,0.44771525 18,1 C18,1.55228475 17.5522847,2 17,2 L16,2 C15.4477153,2 15,2.44771525 15,3 L15,13 C15,13.5522847 15.4477153,14 16,14 L17,14 C17.5522847,14 18,14.4477153 18,15 C18,15.5522847 17.5522847,16 17,16 Z" id="Shape" fill="#2C3E50"></path>
            <path d="M42,16 L41,16 C40.4477153,16 40,15.5522847 40,15 C40,14.4477153 40.4477153,14 41,14 L42,14 C42.5522847,14 43,13.5522847 43,13 L43,3 C43,2.44771525 42.5522847,2 42,2 L41,2 C40.4477153,2 40,1.55228475 40,1 C40,0.44771525 40.4477153,1.01453063e-16 41,0 L42,0 C43.6568542,1.01453063e-16 45,1.34314575 45,3 L45,13 C45,14.6568542 43.6568542,16 42,16 Z" id="Shape" fill="#2C3E50"></path>
        </g>
    </g>
</svg>