<?xml version="1.0" encoding="UTF-8"?>
<svg width="58px" height="58px" viewBox="0 0 58 58" version="1.1" xmlns="http://www.w3.org/2000/svg" xmlns:xlink="http://www.w3.org/1999/xlink">
    <!-- Generator: Sketch 51.3 (57544) - http://www.bohemiancoding.com/sketch -->
    <title>037 - Unicorn Coder</title>
    <desc>Created with Sketch.</desc>
    <defs></defs>
    <g id="Page-1" stroke="none" stroke-width="1" fill="none" fill-rule="evenodd">
        <g id="037---Unicorn-Coder" fill-rule="nonzero">
            <path d="M17.688,11.991 L21.988,14.991 C24,14 30.959,15 30.959,15 C30.58,13.1 28.659,9.579 28.892,7.185 C23.044,7.837 19.531,10.218 17.688,11.991 Z" id="Shape" fill="#955BA5"></path>
            <path d="M35.054,7.082 C36.384,10.625 34.948,15.5 34.948,15.5 C34.948,15.5 45.935,15 51.927,21 C54.1284102,23.5274889 56.1573228,26.2001879 58,29 L58,18.432 C57.9996586,18.1123095 57.9232182,17.7972928 57.777,17.513 C56.75,15.5 51.788,7.917 35.054,7.082 Z" id="Shape" fill="#955BA5"></path>
            <path d="M58,29 L58,56 C58,57.1045695 57.1045695,58 56,58 L38,58 C37.3101228,57.9970306 36.6693183,57.6427034 36.3,57.06 C34.7419773,54.3304198 33.510193,51.427168 32.63,48.41 C32.24,47.11 32,46.19 31.96,46.03 C31.954627,46.0207995 31.9512219,46.0105842 31.95,46 C29.96,46 24.96,47 21.97,47 C18.01,47 15.03,53.87 8.18,54 C4.64743415,54.0008547 1.5566117,51.6242462 0.65,48.21 C-2.09,38.28 4.6,37.79 6.99,33 C9.27,28.44 13.42,22.67 16.42,17.67 C22.41,17.67 21.97,15 21.97,15 C23.97,14 28.96,14 28.96,14 C28.11,9.73 29.55,2.32 29.96,0.3 C29.9820584,0.177137884 30.0656969,0.0742278808 30.1814548,0.0275185199 C30.2972128,-0.019190841 30.4288503,-0.00314656067 30.53,0.07 C35.19,3.44 36.95,14 36.95,14 C40.8921723,14.143641 44.7441467,15.2197263 48.19,17.14 C49.5583443,17.9227125 50.816113,18.8845356 51.93,20 C53.5084056,21.8226593 54.914423,23.787736 56.13,25.87 C57.14,27.49 57.9,28.82 57.99,28.98 C57.9957054,28.9851905 57.9992708,28.9923214 58,29 Z" id="Shape" fill="#B49ACA"></path>
            <path d="M0.609,0.073 C0.453296163,-0.0359082002 0.241422292,-0.0149347537 0.110092813,0.122386945 C-0.0212366659,0.259708644 -0.0327423314,0.472306955 0.083,0.623 L15,20 C21,20 22,15 22,15 L0.609,0.073 Z" id="Shape" fill="#F9EAB0"></path>
            <path d="M21,33 C20.7731827,32.9998795 20.5531443,32.9226545 20.376,32.781 L15.376,28.781 C15.1386874,28.5912316 15.000531,28.3038574 15.000531,28 C15.000531,27.6961426 15.1386874,27.4087684 15.376,27.219 L20.376,23.219 C20.8073344,22.873822 21.436822,22.9436656 21.782,23.375 C22.127178,23.8063344 22.0573344,24.435822 21.626,24.781 L17.6,28 L21.624,31.219 C21.9556357,31.4841942 22.0836269,31.9299129 21.9432201,32.3306574 C21.8028132,32.7314019 21.4246295,32.9997746 21,33 Z" id="Shape" fill="#955BA5"></path>
            <path d="M33,33 C32.5750033,33.0006249 32.1960392,32.7325525 32.0551098,32.3316018 C31.9141805,31.930651 32.0420767,31.4844234 32.374,31.219 L36.4,28 L32.376,24.781 C31.9446656,24.435822 31.874822,23.8063344 32.22,23.375 C32.565178,22.9436656 33.1946656,22.873822 33.626,23.219 L38.626,27.219 C38.8633126,27.4087684 39.001469,27.6961426 39.001469,28 C39.001469,28.3038574 38.8633126,28.5912316 38.626,28.781 L33.626,32.781 C33.44832,32.9230833 33.2275032,33.0003339 33,33 Z" id="Shape" fill="#955BA5"></path>
            <path d="M25,36 C24.9069294,36.0003713 24.8142975,35.9872344 24.725,35.961 C24.4698225,35.8883912 24.2539572,35.7173553 24.1249219,35.4855419 C23.9958866,35.2537284 23.9642585,34.9801397 24.037,34.725 L28.037,20.725 C28.1888783,20.1937021 28.7427021,19.8861217 29.274,20.038 C29.8052979,20.1898783 30.1128783,20.7437021 29.961,21.275 L25.961,35.275 C25.8382928,35.7040043 25.4462082,35.9998018 25,36 Z" id="Shape" fill="#955BA5"></path>
            <path d="M5,44 C4.44771525,44 4,43.5522847 4,43 C4,41.3431458 5.34314575,40 7,40 C7.55228475,40 8,40.4477153 8,41 C8,41.5522847 7.55228475,42 7,42 C6.44771525,42 6,42.4477153 6,43 C6,43.5522847 5.55228475,44 5,44 Z" id="Shape" fill="#955BA5"></path>
            <path d="M58,29 L58,56 C58,57.1045695 57.1045695,58 56,58 L38,58 C37.3101228,57.9970306 36.6693183,57.6427034 36.3,57.06 C34.7419773,54.3304198 33.510193,51.427168 32.63,48.41 C32.24,47.11 32,46.19 31.96,46.03 C31.96,46.03 49.98,42.22 48.19,17.14 C49.5583443,17.9227125 50.816113,18.8845356 51.93,20 C53.5084056,21.8226593 54.914423,23.787736 56.13,25.87 C57.14,27.49 57.9,28.82 57.99,28.98 C57.9957054,28.9851905 57.9992708,28.9923214 58,29 Z" id="Shape" fill="#A08AB5"></path>
        </g>
    </g>
</svg>